<!--?xml version="1.0" encoding="utf-8"?-->
<!-- Generator: Adobe Illustrator 16.0.0, SVG Export Plug-In . SVG Version: 6.00 Build 0)  -->

<svg version="1.1" id="Layer_1" xmlns="http://www.w3.org/2000/svg" xmlns:xlink="http://www.w3.org/1999/xlink" x="0px" y="0px" width="409px" height="373px" viewBox="79.5 200.5 409 373" enable-background="new 79.5 200.5 409 373" xml:space="preserve" style="">
<g>
	<path fill="none" stroke="#000000" stroke-linecap="round" stroke-linejoin="round" stroke-miterlimit="10" d="M248.064,565.795
		c78.168,0.396,156.335,0.787,234.75,1.182c0-1.848,0-4.014,0-7.182c-6.744,0-13.247,0-19.75,0c-17.333,0-34.667,0-52,0
		c-16.667,0-33.336,0.119-50-0.043c-10.668-0.104-21.332-0.76-32-0.908c-6.83-0.094-13.671,0.494-20.5,0.41
		c-16.334-0.203-32.667-0.844-49-0.902c-19.666-0.069-39.333,0.398-59,0.408c-17.167,0.008-34.333-0.342-51.5-0.449
		c-12.167-0.075-24.337-0.194-36.499,0.05c-7.84,0.157-15.667,0.957-23.503,1.414c-1.163,0.067-2.343-0.16-4.207-0.306
		c-0.099,1.449-0.212,3.119-0.363,5.326c11.739,0,22.905,0,34.072,0c19.5,0,39,0,58.5,0c16.667,0,33.334-0.078,50,0.047
		C232.399,564.881,242.731,565.463,248.064,565.795" class="ycWGnqpY_0"></path>
	<path fill="none" stroke="#000000" stroke-linecap="round" stroke-linejoin="round" stroke-miterlimit="10" d="M475.064,559.295
		c-0.151-1.854-0.303-3.707-0.529-6.5c-8.633,0-16.803,0.059-24.971-0.014c-13.334-0.117-26.666-0.398-40-0.453
		c-6.666-0.025-13.337,0.508-20,0.428c-17.334-0.213-34.666-0.768-52-0.91c-11.498-0.096-23.003,0.482-34.5,0.396
		c-12.502-0.096-24.998-0.701-37.5-0.918c-8.831-0.152-17.667,0.028-26.5-0.041c-15.167-0.121-30.333-0.463-45.5-0.451
		c-18.5,0.014-37,0.33-55.5,0.451c-10.667,0.067-21.333,0.012-32,0.012c-3.826,0-7.652,0-12,0c0,3,0,5,0,7" class="ycWGnqpY_1"></path>
	<path fill="none" stroke="#000000" stroke-linecap="round" stroke-linejoin="round" stroke-miterlimit="10" d="M417.064,310.295
		c-7.833-0.975-15.667-2.46-24.553-0.47c5.597,5.064,4.53,10.897,4.541,16.47c0.03,15.167,0.142,30.334-0.026,45.5
		c-0.158,14.334-0.777,28.665-0.931,42.999c-0.279,26.332-0.339,52.668-0.544,79c-0.102,13.168-0.335,26.334-0.479,39.5
		c-0.048,4.334-0.008,8.142-0.008,12.474" class="ycWGnqpY_2"></path>
	<path fill="none" stroke="#000000" stroke-linecap="round" stroke-linejoin="round" stroke-miterlimit="10" d="M415.064,546.295
		c-0.167-0.832-0.468-1.664-0.48-2.5c-0.523-30.332-1.21-60.664-1.454-91c-0.171-21.164,0.278-42.332,0.432-63.499
		c0.18-24.5,0.335-49,0.51-73.5c0.005-0.676,0.104-1.351,0.157-2.026c0.423-0.088,0.844-0.177,1.265-0.266
		c0.356,1.264,1.014,2.524,1.026,3.792c0.229,21.167,0.397,42.333,0.535,63.5c0.058,8.666,0.011,17.333,0.011,25.999
		c0,22.5-0.249,45.004,0.083,67.5c0.24,16.34,1.343,32.664,1.876,49.002c0.242,7.492,1.041,14.367,1.041,22.998
		c-3.028-0.213-7.016,0.209-10,0" class="ycWGnqpY_3"></path>
	<path fill="none" stroke="#000000" stroke-linecap="round" stroke-linejoin="round" stroke-miterlimit="10" d="M156.564,312.295
		c0,18.667-0.126,37.334,0.041,56c0.126,14.168,0.763,28.331,0.928,42.499c0.279,23.832,0.223,47.67,0.578,71.5
		c0.256,17.17,0.912,34.336,1.481,51.5c0.139,4.172,0.638,8.334,0.971,12.5" class="ycWGnqpY_4"></path>
	<path fill="none" stroke="#000000" stroke-linecap="round" stroke-linejoin="round" stroke-miterlimit="10" d="M461.677,314.795
		c-5.667,0-12.944,0-19.111,0c0,3.484-0.031,6.992,0.006,10.5c0.152,14.667,0.391,29.333,0.477,44
		c0.083,14.166,0.282,28.339-0.038,42.499c-0.646,28.504-1.771,56.996-2.382,85.502c-0.346,16.158-0.062,32.332-0.062,48.498" class="ycWGnqpY_5"></path>
	<path fill="none" stroke="#000000" stroke-linecap="round" stroke-linejoin="round" stroke-miterlimit="10" d="M170.779,547.271
		c-0.167-1.166-1.171-4.808-1.196-5.978c-0.36-17-0.691-34-1.017-51c-0.341-17.832-0.834-35.664-0.968-53.5
		c-0.28-37.498-0.327-74.999-0.57-112.5c-0.046-7.072,0.35-13.938,4.376-19.768c5-0.25,9.834-0.751,14.66-0.683
		c13.002,0.187,26.001,0.895,39,0.857c9.501-0.027,18.996-1.174,28.502-1.333c9.828-0.165,19.666,0.232,29.499,0.432
		c15.334,0.311,30.668,0.61,46,1.014c8.502,0.224,17,0.914,25.5,0.925c17.166,0.021,34.333-0.291,51.5-0.421
		c1.499-0.011,2.999,0.447,4.5,0.454c9.333,0.045,18.667,0.022,28,0.022c0,0,23.357-0.442,24.905,0.122" class="ycWGnqpY_6"></path>
	<path fill="none" stroke="#000000" stroke-linecap="round" stroke-linejoin="round" stroke-miterlimit="10" d="M409.175,478.805
		c0.5,7-0.399,15.982-0.153,22.992c0.51,14.498,0.66,29.256,1.044,44.498c-1.944,0-6.315-0.526-9.579-0.526
		c-0.328-2.838,0.142-5.767,0.129-8.974c-0.093-23-0.242-46.002,0.01-68.998c0.212-19.338,1.24-38.666,1.351-58.002
		c0.098-16.997-0.688-33.999-0.876-50.999c-0.162-14.666-0.033-29.333-0.033-44.145" class="ycWGnqpY_7"></path>
	<path fill="none" stroke="#000000" stroke-linecap="round" stroke-linejoin="round" stroke-miterlimit="10" d="M103.822,312.795
		c0,2.833-0.258,5.667-0.258,8.5c0,26.167,0.126,52.334-0.041,78.5c-0.131,20.502-0.87,41-0.887,61.5
		c-0.015,18.166,0.652,36.334,0.903,54.5c0.134,9.666,0.024,19.334,0.024,29" class="ycWGnqpY_8"></path>
	<path fill="none" stroke="#000000" stroke-linecap="round" stroke-linejoin="round" stroke-miterlimit="10" d="M106.8,312.795
		c0.333,9.833,0.227,20.167,0.216,30c-0.066,56.167-0.37,112.333-0.379,168.499c-0.001,11.168,0.928,22.334,1.428,33.5" class="ycWGnqpY_9"></path>
	<path fill="none" stroke="#000000" stroke-linecap="round" stroke-linejoin="round" stroke-miterlimit="10" d="M118.564,313.295
		c0.333,11,0.922,22,0.943,33c0.037,19.166-0.204,38.334-0.465,57.499c-0.228,16.656,2.42,32.687,0.695,49.967
		c0.445,21.513,0.302,43.035,1.339,64.533c0.426,8.836,0.988,17.668,1.488,26.5" class="ycWGnqpY_10"></path>
	<path fill="none" stroke="#000000" stroke-linecap="round" stroke-linejoin="round" stroke-miterlimit="10" d="M110.564,313.295
		c0,4.5-0.107,9.003,0.02,13.499c0.45,16.001,1.512,32.005,1.38,48c-0.386,47.003-1.349,94.001-1.793,141.003
		c-0.081,8.492,1.256,16.996,1.859,25.5c0.082,1.15-0.299,2.332-0.466,3.498" class="ycWGnqpY_11"></path>
	<path fill="none" stroke="#000000" stroke-linecap="round" stroke-linejoin="round" stroke-miterlimit="10" d="M114.564,313.295
		c0.333,16.833,0.808,33.665,0.962,50.5c0.168,18.332,0.101,36.667,0.023,54.999c-0.106,25-0.542,50.002-0.407,75
		c0.092,17.002,0.922,34,1.422,51" class="ycWGnqpY_12"></path>
	<path fill="none" stroke="#000000" stroke-linecap="round" stroke-linejoin="round" stroke-miterlimit="10" d="M152.925,311.795
		c0.333,7.5-0.463,17.998-0.406,25.5c0.14,18.332-0.009,36.666,0.068,55c0.042,9.833,0.443,19.667,0.441,29.499
		c-0.002,10.168-0.546,20.338-0.416,30.5c0.361,28.002,0.926,56.002,1.489,84c0.063,3.172,0.63,6.334,0.963,9.5" class="ycWGnqpY_13"></path>
	<path fill="none" stroke="#000000" stroke-linecap="round" stroke-linejoin="round" stroke-miterlimit="10" d="M456.064,315.295
		c-0.667,35.167-1.607,70.331-1.901,105.501c-0.19,22.662,0.866,45.332,0.809,67.998c-0.048,18.834-0.906,37.668-1.406,56.5" class="ycWGnqpY_14"></path>
	<path fill="none" stroke="#000000" stroke-linecap="round" stroke-linejoin="round" stroke-miterlimit="10" d="M125.654,304.545
		c-3.107,7.797-2.635,17.183-2.608,25.25c0.059,18.333-0.164,36.668,0.062,54.999c0.335,27.337,0.976,54.667,1.449,82.001
		c0.216,12.5,0.217,25.004,0.542,37.5c0.351,13.504,0.966,27,1.466,40.5" class="ycWGnqpY_15"></path>
	<path fill="none" stroke="#000000" stroke-linecap="round" stroke-linejoin="round" stroke-miterlimit="10" d="M161.564,312.295
		c0.167,26.667,0.306,53.334,0.513,80c0.087,11.167,0.391,22.333,0.473,33.499c0.208,28.5,0.13,57.004,0.619,85.498
		c0.2,11.678,1.562,23.336,2.395,35.002" class="ycWGnqpY_16"></path>
	<path fill="none" stroke="#000000" stroke-linecap="round" stroke-linejoin="round" stroke-miterlimit="10" d="M445.564,315.295
		c0.5,18.5,1.229,36.997,1.43,55.5c0.172,15.83-0.104,31.669-0.468,47.499c-0.517,22.336-1.449,44.664-1.915,67.002
		c-0.396,18.994-0.393,37.998-0.521,56.998c-0.008,1.188,0.376,2.379,0.696,4.266c4.633-0.44,12.856-0.097,17.179-0.509" class="ycWGnqpY_17"></path>
	<path fill="none" stroke="#000000" stroke-linecap="round" stroke-linejoin="round" stroke-miterlimit="10" d="M149.272,311.795
		c-0.5,3-0.132,6.999-0.142,10c-0.105,32.333-0.115,64.667-0.042,97c0.032,14.334,0.524,28.668,0.431,43
		c-0.171,26.334-0.624,52.668-0.932,79c-0.008,0.666-0.344,5.302-0.177,5.968" class="ycWGnqpY_18"></path>
	<path fill="none" stroke="#000000" stroke-linecap="round" stroke-linejoin="round" stroke-miterlimit="10" d="M461.564,334.796
		c0.167,7.666,0.364,15.332,0.492,23c0.194,11.666,0.578,23.336,0.463,35c-0.385,39.001-0.878,78.001-1.505,116.999
		c-0.18,11.172-0.955,22.334-1.439,33.5c-0.029,0.672,0.099,1.352,0.177,2.311c1.942,0.392,3.643,0.734,5.812,1.173
		c0,1.686,0,3.352,0,5.018" class="ycWGnqpY_19"></path>
	<path fill="none" stroke="#000000" stroke-linecap="round" stroke-linejoin="round" stroke-miterlimit="10" d="M451.064,339.796
		c0.333,3.832-0.057,10.666-0.045,14.5c0.081,28.666,0.367,57.337-0.053,85.999c-0.376,25.672-1.648,51.332-2.36,77.002
		c-0.261,9.326-0.042,18.666-0.042,27.998" class="ycWGnqpY_20"></path>
	<path fill="none" stroke="#000000" stroke-linecap="round" stroke-linejoin="round" stroke-miterlimit="10" d="M458.814,314.795
		c0.285,2.841-0.443,26.838-0.465,28.841c-0.23,23.333,0.898,43.825,0.71,67.158c-0.317,39.334-0.691,79.01-0.995,118.342
		c-0.015,1.666-1.119,14.583-0.952,16.249" class="ycWGnqpY_21"></path>
	<path fill="none" stroke="#000000" stroke-linecap="round" stroke-linejoin="round" stroke-miterlimit="10" d="M468.432,272.507
		c-9.833-2.833-82.058-26.8-91.86-29.73c-13.689-4.092-27.347-8.295-41.004-12.486c-15.675-4.811-31.28-9.853-47.029-14.403
		c-6.453-1.864-12.786,0.823-18.955,2.476c-16.054,4.299-41.518,11.433-57.518,15.933" class="ycWGnqpY_22"></path>
	<path fill="none" stroke="#000000" stroke-linecap="round" stroke-linejoin="round" stroke-miterlimit="10" d="M212.064,234.295
		c-6.5,1.833-18.5,5.167-25,7" class="ycWGnqpY_23"></path>
	<path fill="none" stroke="#000000" stroke-linecap="round" stroke-linejoin="round" stroke-miterlimit="10" d="M187.064,241.295
		c-2.5,0.833-13.5,4.167-16,5" class="ycWGnqpY_24"></path>
	<path fill="none" stroke="#000000" stroke-linecap="round" stroke-linejoin="round" stroke-miterlimit="10" d="M171.064,246.295
		c-0.5,0.167-6.5,1.833-7,2" class="ycWGnqpY_25"></path>
	<path fill="none" stroke="#000000" stroke-linecap="round" stroke-linejoin="round" stroke-miterlimit="10" d="M164.064,248.295
		c-0.5,0.167-7.5,1.833-8,2" class="ycWGnqpY_26"></path>
	<path fill="none" stroke="#000000" stroke-linecap="round" stroke-linejoin="round" stroke-miterlimit="10" d="M156.064,250.295
		c-5.5,1.833-39.75,11.44-45.25,13.273" class="ycWGnqpY_27"></path>
	<path fill="none" stroke="#000000" stroke-linecap="round" stroke-linejoin="round" stroke-miterlimit="10" d="M278.064,211.185
		c7.437-0.345,14.355,1.547,20.461,3.252c28.09,7.846,56.033,16.211,84.042,24.351c14.486,4.211,29.057,8.152,43.455,12.643
		l40.043,15.865c0.621,1.369,1.242,2.738,2.366,5.212c-6.388-0.473-11.373-1.067-16.368-1.169
		c-14.163-0.289-28.332-0.513-42.498-0.507c-15.668,0.007-31.334,0.405-47,0.428c-11.5,0.017-23-0.349-34.5-0.447
		c-9.334-0.08-18.67-0.142-28,0.024c-7.004,0.125-14.001,0.626-21.001,0.959" class="ycWGnqpY_28"></path>
	<path fill="none" stroke="#000000" stroke-linecap="round" stroke-linejoin="round" stroke-miterlimit="10" d="M410.564,314.295
		c0.167,1.333,0.494,2.669,0.476,4c-0.299,21-0.494,42.004-1.021,62.999c-0.446,17.839-0.249,35.669-0.97,53.501
		c-0.418,10.336,0.625,33.678,0.125,44.01" class="ycWGnqpY_29"></path>
	<path fill="none" stroke="#000000" stroke-linecap="round" stroke-linejoin="round" stroke-miterlimit="10" d="M406.569,314.295
		c0,2.098,0.008,3.161-0.007,5c-0.164,20.5-0.288,41-0.51,61.5c-0.289,26.833-0.665,53.667-0.966,80.499" class="ycWGnqpY_30"></path>
	<path fill="none" stroke="#000000" stroke-linecap="round" stroke-linejoin="round" stroke-miterlimit="10" d="M203.064,231.795
		c-14.167,4-30.361,8.903-44.493,13.024c-17.364,5.063-34.685,10.271-51.996,15.514c-2.707,0.82-5.259,2.151-8.512,3.509
		c0,1.62,0,3.786,0,6.016c2.29,0.739,4.145,1.338,6,1.938" class="ycWGnqpY_31"></path>
	<path fill="none" stroke="#000000" stroke-linecap="round" stroke-linejoin="round" stroke-miterlimit="10" d="M401.564,545.795
		c-5.833,0-11.67-0.104-17.5,0.023c-11.834,0.258-23.665,0.754-35.5,0.95c-16.498,0.271-33.104,1.556-49.469,0.154
		c-13.562-1.16-27.034-0.873-40.532-1.014c-15.495-0.162-30.998,0.623-46.5,0.865c-16.332,0.256-32.671,0.674-48.998,0.426
		c-15.173-0.229-30.333-1.303-45.503-1.873c-5.5-0.207-11.015-0.033-17.407-0.033c0.085,1.047,0.247,3.023,0.409,5" class="ycWGnqpY_32"></path>
	<path fill="none" stroke="#000000" stroke-linecap="round" stroke-linejoin="round" stroke-miterlimit="10" d="M405.088,461.295
		c-0.5,8.168-0.458,21.836-0.436,30c0.052,18.334,0.568,36.143,0.901,54.475" class="ycWGnqpY_33"></path>
	<path fill="none" stroke="#000000" stroke-linecap="round" stroke-linejoin="round" stroke-miterlimit="10" d="M104.564,277.795
		c-0.224-2.298-0.449-4.597-0.732-7.5c7.565,0,13.899,0.049,20.232-0.01c14.667-0.136,29.334-0.532,44-0.438
		c19.335,0.123,38.668,0.561,58,0.979c6.337,0.137,12.667,0.636,19,0.969h11c6.667-0.167,16.333,0.167,23,0" class="ycWGnqpY_34"></path>
	<path fill="none" stroke="#000000" stroke-linecap="round" stroke-linejoin="round" stroke-miterlimit="10" d="M275.064,226.295
		c5.379-2.955,10.248-0.991,15.551,0.852c9.652,3.355,19.604,5.858,29.452,8.639c16.655,4.702,33.35,9.275,49.99,14.029
		c16.025,4.577,32.14,8.913,47.945,14.164c6.987,2.321,27.901,3.298,35.025,3.657" class="ycWGnqpY_35"></path>
	<path fill="none" stroke="#000000" stroke-linecap="round" stroke-linejoin="round" stroke-miterlimit="10" d="M278.064,211.295
		c-17.667,5-35.315,10.063-53.008,14.97c-7.282,2.019-14.658,3.697-21.992,5.53" class="ycWGnqpY_36"></path>
	<path fill="none" stroke="#000000" stroke-linecap="round" stroke-linejoin="round" stroke-miterlimit="10" d="M195.564,263.795
		c14.5,0.5,28.997,1.271,43.5,1.443c29.831,0.354,59.667,0.311,89.5,0.59c15.002,0.142,29.998,0.664,45.001,0.937
		c2.495,0.046,10.23-0.303,12.73-0.47" class="ycWGnqpY_37"></path>
	<path fill="none" stroke="#000000" stroke-linecap="round" stroke-linejoin="round" stroke-miterlimit="10" d="M185.055,248.252
		c-8.167,1.833-21.812,5.264-29.995,7.023c-5.144,1.105-25.187,7.128-30.353,8.128" class="ycWGnqpY_38"></path>
	<path fill="none" stroke="#000000" stroke-linecap="round" stroke-linejoin="round" stroke-miterlimit="10" d="M462.567,272.026
		c0.333,10.167,0.731,21.601,0.941,31.77c0.044,2.159-0.116,4.573-1.032,6.457c-1.645,9.133,0.125,16.743-0.912,24.542" class="ycWGnqpY_39"></path>
	<path fill="none" stroke="#000000" stroke-linecap="round" stroke-linejoin="round" stroke-miterlimit="10" d="M291.064,254.795
		c-3.354,3.008-6.709,6.016-10.063,9.023c-0.336-0.311-0.673-0.621-1.009-0.932c2.451-5.297,6.834-9.215,10.572-13.592
		c0,0,3.313-5.954,3-8c-1.604-1.246-3.205-2.491-4.273-3.321c-0.258-2.192-0.492-4.186-0.727-6.179" class="ycWGnqpY_40"></path>
	<path fill="none" stroke="#000000" stroke-linecap="round" stroke-linejoin="round" stroke-miterlimit="10" d="M123.564,263.295
		c-4.667,0.333-20.833,0.214-25.5,0.547" class="ycWGnqpY_41"></path>
	<path fill="none" stroke="#000000" stroke-linecap="round" stroke-linejoin="round" stroke-miterlimit="10" d="M104.564,277.795
		c-0.333,4.167-0.356,9.329-0.445,13.501c-0.086,3.995,0.279,9.249,0.445,13.249" class="ycWGnqpY_42"></path>
	<path fill="none" stroke="#000000" stroke-linecap="round" stroke-linejoin="round" stroke-miterlimit="10" d="M450.564,315.295
		c0.167,8.167,0.333,16.333,0.5,24.5" class="ycWGnqpY_43"></path>
	<path fill="none" stroke="#000000" stroke-linecap="round" stroke-linejoin="round" stroke-miterlimit="10" d="M168.155,311.795
		c-5.418,0-11.926,0-18.883,0c-0.795-1.625-2.089-4.27-3.547-7.25c-14.155,0-28.656,0-43.88,0c0.575,2.397,1.169,4.878,1.978,8.25
		c6.39,0,13.588,0,19.765,0" class="ycWGnqpY_44"></path>
	<path fill="none" stroke="#000000" stroke-linecap="round" stroke-linejoin="round" stroke-miterlimit="10" d="M169.564,307.795
		c-7.167,0-14.333,0-21.5,0" class="ycWGnqpY_45"></path>
	<path fill="none" stroke="#000000" stroke-linecap="round" stroke-linejoin="round" stroke-miterlimit="10" d="M132.986,263.404
		c3.333,0.167,14.994,0.636,18.328,0.646c16,0.05,32-0.026,48,0.062" class="ycWGnqpY_46"></path>
	<path fill="none" stroke="#000000" stroke-linecap="round" stroke-linejoin="round" stroke-miterlimit="10" d="M124.324,308.795
		c-4.333-0.167-9.425-0.366-13.76-0.487c-2.498-0.069-5-0.013-7.5-0.013" class="ycWGnqpY_47"></path>
	<path fill="none" stroke="#000000" stroke-linecap="round" stroke-linejoin="round" stroke-miterlimit="10" d="M348.564,261.295
		c0.653-0.205,1.307-0.41,2.5-0.784c0,1.94,0,3.612,0,5.284" class="ycWGnqpY_48"></path>
	<path fill="none" stroke="#000000" stroke-linecap="round" stroke-linejoin="round" stroke-miterlimit="10" d="M355.564,265.295
		c-0.562-4.812-1.082-9.639-4.668-14.383c-0.994,3.646-1.499,7.331-2.332,10.383" class="ycWGnqpY_49"></path>
	<path fill="none" stroke="#000000" stroke-linecap="round" stroke-linejoin="round" stroke-miterlimit="10" d="M224.064,239.295
		c-11.333,2.667-27.65,6.408-39.01,8.957c-1.522,0.342-7.087,3.985-7.99,6.043" class="ycWGnqpY_50"></path>
	<path fill="none" stroke="#000000" stroke-linecap="round" stroke-linejoin="round" stroke-miterlimit="10" d="M431.432,266.179
		c-7.833,0-39.533,0.117-47.366,0.117" class="ycWGnqpY_51"></path>
	<path fill="none" stroke="#000000" stroke-linecap="round" stroke-linejoin="round" stroke-miterlimit="10" d="M171.404,304.528
		c-7.667,0-18.013,0.018-25.68,0.018" class="ycWGnqpY_52"></path>
	<path fill="none" stroke="#000000" stroke-linecap="round" stroke-linejoin="round" stroke-miterlimit="10" d="M329.064,241.795
		c-1.673,3.164-3.345,6.328-5.496,10.402c2.979-1.354,5.237-2.378,7.496-3.402" class="ycWGnqpY_53"></path>
	<path fill="none" stroke="#000000" stroke-linecap="round" stroke-linejoin="round" stroke-miterlimit="10" d="M420.064,546.295
		c8,0,16.724,0.266,24.724,0.266" class="ycWGnqpY_54"></path>
	<path fill="none" stroke="#000000" stroke-linecap="round" stroke-linejoin="round" stroke-miterlimit="10" d="M181.917,262.795
		c-0.203-1.83-0.758-5.659-0.985-7.705c-5.61-1.482-9.155,2.763-13.502,5.435c-2.272-1.274-4.549-2.551-7.143-4.006
		c-2.029,1.395-4.126,2.835-6.223,4.276" class="ycWGnqpY_55"></path>
	<path fill="none" stroke="#000000" stroke-linecap="round" stroke-linejoin="round" stroke-miterlimit="10" d="M293.564,252.295
		c2.666,3,5.223,6.11,8.059,8.941c1.01,1.008,2.697,1.337,4.076,1.977c0.232-0.384,0.466-0.768,0.699-1.151
		c-1.778-2.422-3.558-4.845-5.334-7.267" class="ycWGnqpY_56"></path>
	<path fill="none" stroke="#000000" stroke-linecap="round" stroke-linejoin="round" stroke-miterlimit="10" d="M221.564,248.295
		c3.695-2.627,3.067-3.733,1.203-7.083c-4.423,1.818-5.387,3.865-2.745,8.109c0.617,0.99,0.708,2.307,1.042,3.474" class="ycWGnqpY_57"></path>
	<path fill="none" stroke="#000000" stroke-linecap="round" stroke-linejoin="round" stroke-miterlimit="10" d="M260.564,240.795
		c1.167,2.833,2.334,5.666,3.595,8.729c2.338-0.996,4.673-1.991,7.192-3.064c0.837,1.072,1.862,2.386,3.839,4.918
		c-7.353-2.722-10.069,3.835-15.13,4.899c-0.638,0.135-1.33,0.019-1.996,0.019" class="ycWGnqpY_58"></path>
	<path fill="none" stroke="#000000" stroke-linecap="round" stroke-linejoin="round" stroke-miterlimit="10" d="M289.564,228.295
		c-1.51,2.327-3.02,4.654-5.004,7.714c1.377,0.787,4.191,1.816,5.504,2.566" class="ycWGnqpY_59"></path>
	<path fill="none" stroke="#000000" stroke-linecap="round" stroke-linejoin="round" stroke-miterlimit="10" d="M208.064,247.795
		c-2.667,4.667-5.333,9.333-8,14l-9,0.5c0.547-3.553,0.351-2.28,1-6.5" class="ycWGnqpY_60"></path>
	<path fill="none" stroke="#000000" stroke-linecap="round" stroke-linejoin="round" stroke-miterlimit="10" d="M299.564,237.295
		c0.5-1.5,1-3,1.5-4.5l-4-2.5c-0.736,1.473-1.473,2.945-2.58,5.161c1.651,0.844,3.061,1.737,4.591,2.31
		c3.8,1.422,7.655,2.696,11.489,4.029" class="ycWGnqpY_61"></path>
	<path fill="none" stroke="#000000" stroke-linecap="round" stroke-linejoin="round" stroke-miterlimit="10" d="M275.064,226.295
		c-2.377,3.942,0.446,10.047,2.5,13.103" class="ycWGnqpY_62"></path>
	<path fill="none" stroke="#000000" stroke-linecap="round" stroke-linejoin="round" stroke-miterlimit="10" d="M464.564,266.045" class="ycWGnqpY_63"></path>
	<path fill="none" stroke="#000000" stroke-linecap="round" stroke-linejoin="round" stroke-miterlimit="10" d="M240.564,250.795
		c-0.895,1.118-1.789,2.235-3.027,3.783c5.768,1.624,2.384,6.55,4.027,9.717" class="ycWGnqpY_64"></path>
	<path fill="none" stroke="#000000" stroke-linecap="round" stroke-linejoin="round" stroke-miterlimit="10" d="M263.064,256.295
		c0.727,4.63,0.727,4.63,4.717,3.435c-0.75-1.499-1.483-2.967-2.217-4.435" class="ycWGnqpY_65"></path>
	<path fill="none" stroke="#000000" stroke-linecap="round" stroke-linejoin="round" stroke-miterlimit="10" d="M372.564,252.295
		c0.5,2.833,1,5.667,1.5,8.5" class="ycWGnqpY_66"></path>
	<path fill="none" stroke="#000000" stroke-linecap="round" stroke-linejoin="round" stroke-miterlimit="10" d="M181.564,260.002
		c-3.518-1.271-6.691,0.839-9,2.793h-8c-1.08-0.936-2.159-1.871-3.819-3.31c-1.067,1.517-1.874,2.663-2.681,3.81" class="ycWGnqpY_67"></path>
	<path fill="none" stroke="#000000" stroke-linecap="round" stroke-linejoin="round" stroke-miterlimit="10" d="M258.064,256.295
		c-2.667-0.167-8.333,1.167-11,1" class="ycWGnqpY_68"></path>
	<path fill="none" stroke="#000000" stroke-linecap="round" stroke-linejoin="round" stroke-miterlimit="10" d="M277.167,247.406
		c-1.334,5.667-1.27,11.722-2.603,17.389" class="ycWGnqpY_69"></path>
	<path fill="none" stroke="#000000" stroke-linecap="round" stroke-linejoin="round" stroke-miterlimit="10" d="M343.564,257.295
		c-1.616-1.714-4.232-4.429-6.619-6.959c-3.032,2.718-6.705,5.838-9.629,8.459" class="ycWGnqpY_70"></path>
	<path fill="none" stroke="#000000" stroke-linecap="round" stroke-linejoin="round" stroke-miterlimit="10" d="M215.064,261.795
		c0.438-1.969,0.877-3.938,1.316-5.906c-0.388-0.107-0.776-0.214-1.164-0.32c-0.884,1.409-1.767,2.818-3.104,4.951
		c-0.65-1.144-1.099-1.935-1.548-2.725" class="ycWGnqpY_71"></path>
	<path fill="none" stroke="#000000" stroke-linecap="round" stroke-linejoin="round" stroke-miterlimit="10" d="M368.564,255.295
		c-2.174,1.375-5.953-1.002-7,3" class="ycWGnqpY_72"></path>
	<path fill="none" stroke="#000000" stroke-linecap="round" stroke-linejoin="round" stroke-miterlimit="10" d="M235.064,249.795
		c-1.381,2.81-2.761,5.619-4.448,9.052c-1.195-1.194-2.373-2.373-3.552-3.552" class="ycWGnqpY_73"></path>
	<path fill="none" stroke="#000000" stroke-linecap="round" stroke-linejoin="round" stroke-miterlimit="10" d="M439.564,306.295
		c0,1.364,1.594,7.376,3,8.5" class="ycWGnqpY_74"></path>
	<path fill="none" stroke="#000000" stroke-linecap="round" stroke-linejoin="round" stroke-miterlimit="10" d="M232.564,250.25
		c-1.939,5.045-4.48,1.6-6.806,2.34c-2.994,0.953-6.169,1.131-9.853-1.231c-1.432,1.957-3.886,4.447-5.341,6.437" class="ycWGnqpY_75"></path>
	<path fill="none" stroke="#000000" stroke-linecap="round" stroke-linejoin="round" stroke-miterlimit="10" d="M337.564,250.795
		c0-1.667,0-3.333,0-5c-0.666-0.025-1.334-0.051-2-0.076c0,1.859,0,3.718,0,5.576" class="ycWGnqpY_76"></path>
	<path fill="none" stroke="#000000" stroke-linecap="round" stroke-linejoin="round" stroke-miterlimit="10" d="M320.564,256.795
		c-0.5,2.833-1,5.667-1.5,8.5" class="ycWGnqpY_77"></path>
	<path fill="none" stroke="#000000" stroke-linecap="round" stroke-linejoin="round" stroke-miterlimit="10" d="M382.564,265.295
		c0-1,0-2,0-3.033c-0.83-0.155-1.665-0.311-2.5-0.467c0,0-3.998-1.892,0-4c1.333,0,2.667,0,4,0c0,0,2.063-5.142,2.5,1
		c0.227,3.191,1.883,3.638,3.027,3.812c3.421,0.521,6.973,0.188,11.009,0.188c0.542,0.828,1.253,1.914,1.964,3" class="ycWGnqpY_78"></path>
	<path fill="none" stroke="#000000" stroke-linecap="round" stroke-linejoin="round" stroke-miterlimit="10" d="M242.064,247.795
		c0.091-1.173,0.182-2.345,0.245-3.165c-1.611-1.812-3.178-3.573-4.745-5.335l-0.5,5.5c1.547,2.089,3.095,4.179,4.532,6.118
		c4.703-1.249,8.926-2.371,13.583-3.608c-2.177-2.452-3.836-4.32-5.466-6.156c2.915-1.924,5.422-3.579,7.732-5.104
		c2.121,0,4.122,0,7.088,0c-2.588,2.301-4.528,4.025-6.469,5.75" class="ycWGnqpY_79"></path>
	<path fill="none" stroke="#000000" stroke-linecap="round" stroke-linejoin="round" stroke-miterlimit="10" d="M276.577,237.586
		c0.166,2-0.881,7.829-0.715,9.829c0,0,1.85,0.177,5.203-0.62s2-2.547,2-2.547l-1-0.453c-4.26-2.603-6.481-5.68-4.141-11.062
		c1.172-2.693,3.084-8.364,0.141-7.62c-16.028,4.056-38,10.014-54,14.181" class="ycWGnqpY_80"></path>
	<path fill="none" stroke="#000000" stroke-linecap="round" stroke-linejoin="round" stroke-miterlimit="10" d="M315.064,253.795
		c1.774,0.95,3.551,1.9,5.717,3.059c1.05-1.719,1.916-3.139,2.783-4.559" class="ycWGnqpY_81"></path>
	<path fill="none" stroke="#000000" stroke-linecap="round" stroke-linejoin="round" stroke-miterlimit="10" d="M290.064,236.295
		c1.666,0,3.334,0,5,0" class="ycWGnqpY_82"></path>
	<path fill="none" stroke="#000000" stroke-linecap="round" stroke-linejoin="round" stroke-miterlimit="10" d="M227.064,255.295
		c-1,1.667-2.5,4.333-3.5,6" class="ycWGnqpY_83"></path>
	<path fill="none" stroke="#000000" stroke-linecap="round" stroke-linejoin="round" stroke-miterlimit="10" d="M315.266,243.377
		c1.166,2.167,3.134,4.251,4.3,6.418" class="ycWGnqpY_84"></path>
	<path fill="none" stroke="#000000" stroke-linecap="round" stroke-linejoin="round" stroke-miterlimit="10" d="M183.064,249.795
		c-0.5,1.5-1,3-1.5,4.5" class="ycWGnqpY_85"></path>
	<path fill="none" stroke="#000000" stroke-linecap="round" stroke-linejoin="round" stroke-miterlimit="10" d="M340.564,259.295
		c1.5,1.833,2,2.667,3.5,4.5" class="ycWGnqpY_86"></path>
	<path fill="none" stroke="#000000" stroke-linecap="round" stroke-linejoin="round" stroke-miterlimit="10" d="M194.064,253.795
		c-1.386-0.99-2.772-1.98-4.158-2.971c-0.263,0.25-0.525,0.499-0.787,0.748c0.832,1.334,1.664,2.668,2.686,4.308
		c1.691-1.458,2.954-2.547,4.138-3.568c-0.291-1.165-0.585-2.341-0.879-3.517" class="ycWGnqpY_87"></path>
	<path fill="none" stroke="#000000" stroke-linecap="round" stroke-linejoin="round" stroke-miterlimit="10" d="M323.064,240.795
		c0.334,1.333,0.666,2.667,1,4" class="ycWGnqpY_88"></path>
	<path fill="none" stroke="#000000" stroke-linecap="round" stroke-linejoin="round" stroke-miterlimit="10" d="M401.564,263.295
		c0.833-1,0.603-0.723,1.436-1.723c0,0,2.312,3.679,3.25,3.709" class="ycWGnqpY_89"></path>
	<path fill="none" stroke="#000000" stroke-linecap="round" stroke-linejoin="round" stroke-miterlimit="10" d="M281.372,234.795
		c-0.666,1.333-2.263,4.667-2.929,6" class="ycWGnqpY_90"></path>
	<path fill="none" stroke="#000000" stroke-linecap="round" stroke-linejoin="round" stroke-miterlimit="10" d="M327.316,258.795
		c1.5,0,1.749,0,3.774,0c-0.842,2.075-1.434,3.538-2.026,5" class="ycWGnqpY_91"></path>
	<path fill="none" stroke="#000000" stroke-linecap="round" stroke-linejoin="round" stroke-miterlimit="10" d="M208.064,247.795
		c-1.334,0.832-5.168,4.665-5.798,5.058c-2.336-0.229-4.019-0.393-5.702-0.558" class="ycWGnqpY_92"></path>
	<path fill="none" stroke="#000000" stroke-linecap="round" stroke-linejoin="round" stroke-miterlimit="10" d="M191.564,248.628
		c0,1.333,0,2.048,0,3.381" class="ycWGnqpY_93"></path>
	<path fill="none" stroke="#000000" stroke-linecap="round" stroke-linejoin="round" stroke-miterlimit="10" d="M295.064,254.003
		c1.166-0.833,2.834-2.375,4-3.208c0,0,1-1.121,1-2c0-1.333,0-2.667,0-4c0,0-0.029-3.115,1-3c4.655,0.519,9.311,1.037,14.201,1.582
		c0.279-3.7-1.207-5.244-4.2-5.582" class="ycWGnqpY_94"></path>
	<path fill="none" stroke="#000000" stroke-linecap="round" stroke-linejoin="round" stroke-miterlimit="10" d="M132.986,263.404
		c-1.333,0-8.588-0.108-9.922-0.108" class="ycWGnqpY_95"></path>
	<path fill="none" stroke="#000000" stroke-linecap="round" stroke-linejoin="round" stroke-miterlimit="10" d="M200.064,246.795
		c0,2,0,3,0,5" class="ycWGnqpY_96"></path>
	<path fill="none" stroke="#000000" stroke-linecap="round" stroke-linejoin="round" stroke-miterlimit="10" d="M278.68,247.25
		c0.334,1.167,0.358,10.43,0.692,11.597" class="ycWGnqpY_97"></path>
	<path fill="none" stroke="#000000" stroke-linecap="round" stroke-linejoin="round" stroke-miterlimit="10" d="M323.064,262.795
		c-0.666-1.167-2.109-3.274-2.775-4.441" class="ycWGnqpY_98"></path>
	<path fill="none" stroke="#000000" stroke-linecap="round" stroke-linejoin="round" stroke-miterlimit="10" d="M247.064,253.795
		c-0.375,1.848-0.75,3.695-1.272,6.272c0.442,0.53,1.357,1.629,2.272,2.728" class="ycWGnqpY_99"></path>
	<path fill="none" stroke="#000000" stroke-linecap="round" stroke-linejoin="round" stroke-miterlimit="10" d="M364.064,263.795
		c1.167-0.5,2.333-1,3.5-1.5c0,0,5.646,0.628,5-2" class="ycWGnqpY_100"></path>
	<path fill="none" stroke="#000000" stroke-linecap="round" stroke-linejoin="round" stroke-miterlimit="10" d="M343.564,257.295
		c-1,0.667-2,1.333-3,2" class="ycWGnqpY_101"></path>
	<path fill="none" stroke="#000000" stroke-linecap="round" stroke-linejoin="round" stroke-miterlimit="10" d="M236.564,256.795
		c-0.99,0.511-1.98,1.021-2.97,1.532c5.188,2.047,2.435-2.797,3.943-3.749" class="ycWGnqpY_102"></path>
	<path fill="none" stroke="#000000" stroke-linecap="round" stroke-linejoin="round" stroke-miterlimit="10" d="M414.064,313.795
		c-2.333,0-4.667,0-7,0l-6.033,0.5l-5.037,0.355" class="ycWGnqpY_103"></path>
	<path fill="none" stroke="#000000" stroke-linecap="round" stroke-linejoin="round" stroke-miterlimit="10" d="M415.492,313.503
		c1-2.167,2.572-4.041,3.572-6.208l0.84-1.497" class="ycWGnqpY_104"></path>
	<path fill="none" stroke="#000000" stroke-linecap="round" stroke-linejoin="round" stroke-miterlimit="10" d="M366.064,259.795
		c0.5,0.167,1,0.333,1.5,0.5c0,0,2.896,1.128,5,0c0.83-0.446-1.447-1.255-1.972-2.021c-0.625-0.914-1.323-1.938-1.474-2.987
		c-0.445-3.11-2.458-3.656-5.057-3.492" class="ycWGnqpY_105"></path>
	<path fill="none" stroke="#000000" stroke-linecap="round" stroke-linejoin="round" stroke-miterlimit="10" d="M284.064,251.795
		c0.166,0.5,0.334,1,0.5,1.5" class="ycWGnqpY_106"></path>
	<path fill="none" stroke="#000000" stroke-linecap="round" stroke-linejoin="round" stroke-miterlimit="10" d="M295.064,248.795
		c0.334,0.333,0.666,0.667,1,1" class="ycWGnqpY_107"></path>
</g>
<path fill="none" stroke="#000000" stroke-linecap="round" stroke-linejoin="round" stroke-miterlimit="10" d="M387.334,305.508
	c0,0,3.965,3.002,5.179,4.317" class="ycWGnqpY_108"></path>
<path fill="none" stroke="#000000" stroke-linecap="round" stroke-linejoin="round" stroke-miterlimit="10" d="M440.455,310.545
	c2.711-0.546,11.544-1.297,11.544-1.297s8.273,0.095,10.429,1.297" class="ycWGnqpY_109"></path>
<path fill="none" stroke="#000000" stroke-linecap="round" stroke-linejoin="round" stroke-miterlimit="10" d="M285.528,248.795
	c-1.64-0.453-3.635-2.25-3.635-2.25s-1.1,6.613,1.171,8.033s1.5,1.441,1.5,1.441" class="ycWGnqpY_110"></path>
<style data-made-with="vivus-instant">.ycWGnqpY_0{stroke-dasharray:809 811;stroke-dashoffset:810;animation:ycWGnqpY_draw 3333ms linear 0ms forwards;}.ycWGnqpY_1{stroke-dasharray:395 397;stroke-dashoffset:396;animation:ycWGnqpY_draw 3333ms linear 15ms forwards;}.ycWGnqpY_2{stroke-dasharray:262 264;stroke-dashoffset:263;animation:ycWGnqpY_draw 3333ms linear 30ms forwards;}.ycWGnqpY_3{stroke-dasharray:477 479;stroke-dashoffset:478;animation:ycWGnqpY_draw 3333ms linear 45ms forwards;}.ycWGnqpY_4{stroke-dasharray:235 237;stroke-dashoffset:236;animation:ycWGnqpY_draw 3333ms linear 60ms forwards;}.ycWGnqpY_5{stroke-dasharray:251 253;stroke-dashoffset:252;animation:ycWGnqpY_draw 3333ms linear 75ms forwards;}.ycWGnqpY_6{stroke-dasharray:536 538;stroke-dashoffset:537;animation:ycWGnqpY_draw 3333ms linear 90ms forwards;}.ycWGnqpY_7{stroke-dasharray:309 311;stroke-dashoffset:310;animation:ycWGnqpY_draw 3333ms linear 106ms forwards;}.ycWGnqpY_8{stroke-dasharray:233 235;stroke-dashoffset:234;animation:ycWGnqpY_draw 3333ms linear 121ms forwards;}.ycWGnqpY_9{stroke-dasharray:233 235;stroke-dashoffset:234;animation:ycWGnqpY_draw 3333ms linear 136ms forwards;}.ycWGnqpY_10{stroke-dasharray:232 234;stroke-dashoffset:233;animation:ycWGnqpY_draw 3333ms linear 151ms forwards;}.ycWGnqpY_11{stroke-dasharray:232 234;stroke-dashoffset:233;animation:ycWGnqpY_draw 3333ms linear 166ms forwards;}.ycWGnqpY_12{stroke-dasharray:232 234;stroke-dashoffset:233;animation:ycWGnqpY_draw 3333ms linear 181ms forwards;}.ycWGnqpY_13{stroke-dasharray:235 237;stroke-dashoffset:236;animation:ycWGnqpY_draw 3333ms linear 196ms forwards;}.ycWGnqpY_14{stroke-dasharray:231 233;stroke-dashoffset:232;animation:ycWGnqpY_draw 3333ms linear 212ms forwards;}.ycWGnqpY_15{stroke-dasharray:241 243;stroke-dashoffset:242;animation:ycWGnqpY_draw 3333ms linear 227ms forwards;}.ycWGnqpY_16{stroke-dasharray:235 237;stroke-dashoffset:236;animation:ycWGnqpY_draw 3333ms linear 242ms forwards;}.ycWGnqpY_17{stroke-dasharray:249 251;stroke-dashoffset:250;animation:ycWGnqpY_draw 3333ms linear 257ms forwards;}.ycWGnqpY_18{stroke-dasharray:235 237;stroke-dashoffset:236;animation:ycWGnqpY_draw 3333ms linear 272ms forwards;}.ycWGnqpY_19{stroke-dasharray:222 224;stroke-dashoffset:223;animation:ycWGnqpY_draw 3333ms linear 287ms forwards;}.ycWGnqpY_20{stroke-dasharray:206 208;stroke-dashoffset:207;animation:ycWGnqpY_draw 3333ms linear 303ms forwards;}.ycWGnqpY_21{stroke-dasharray:231 233;stroke-dashoffset:232;animation:ycWGnqpY_draw 3333ms linear 318ms forwards;}.ycWGnqpY_22{stroke-dasharray:268 270;stroke-dashoffset:269;animation:ycWGnqpY_draw 3333ms linear 333ms forwards;}.ycWGnqpY_23{stroke-dasharray:26 28;stroke-dashoffset:27;animation:ycWGnqpY_draw 3333ms linear 348ms forwards;}.ycWGnqpY_24{stroke-dasharray:17 19;stroke-dashoffset:18;animation:ycWGnqpY_draw 3333ms linear 363ms forwards;}.ycWGnqpY_25{stroke-dasharray:8 10;stroke-dashoffset:9;animation:ycWGnqpY_draw 3333ms linear 378ms forwards;}.ycWGnqpY_26{stroke-dasharray:9 11;stroke-dashoffset:10;animation:ycWGnqpY_draw 3333ms linear 393ms forwards;}.ycWGnqpY_27{stroke-dasharray:48 50;stroke-dashoffset:49;animation:ycWGnqpY_draw 3333ms linear 409ms forwards;}.ycWGnqpY_28{stroke-dasharray:392 394;stroke-dashoffset:393;animation:ycWGnqpY_draw 3333ms linear 424ms forwards;}.ycWGnqpY_29{stroke-dasharray:165 167;stroke-dashoffset:166;animation:ycWGnqpY_draw 3333ms linear 439ms forwards;}.ycWGnqpY_30{stroke-dasharray:148 150;stroke-dashoffset:149;animation:ycWGnqpY_draw 3333ms linear 454ms forwards;}.ycWGnqpY_31{stroke-dasharray:123 125;stroke-dashoffset:124;animation:ycWGnqpY_draw 3333ms linear 469ms forwards;}.ycWGnqpY_32{stroke-dasharray:307 309;stroke-dashoffset:308;animation:ycWGnqpY_draw 3333ms linear 484ms forwards;}.ycWGnqpY_33{stroke-dasharray:85 87;stroke-dashoffset:86;animation:ycWGnqpY_draw 3333ms linear 500ms forwards;}.ycWGnqpY_34{stroke-dasharray:183 185;stroke-dashoffset:184;animation:ycWGnqpY_draw 3333ms linear 515ms forwards;}.ycWGnqpY_35{stroke-dasharray:185 187;stroke-dashoffset:186;animation:ycWGnqpY_draw 3333ms linear 530ms forwards;}.ycWGnqpY_36{stroke-dasharray:78 80;stroke-dashoffset:79;animation:ycWGnqpY_draw 3333ms linear 545ms forwards;}.ycWGnqpY_37{stroke-dasharray:191 193;stroke-dashoffset:192;animation:ycWGnqpY_draw 3333ms linear 560ms forwards;}.ycWGnqpY_38{stroke-dasharray:63 65;stroke-dashoffset:64;animation:ycWGnqpY_draw 3333ms linear 575ms forwards;}.ycWGnqpY_39{stroke-dasharray:63 65;stroke-dashoffset:64;animation:ycWGnqpY_draw 3333ms linear 590ms forwards;}.ycWGnqpY_40{stroke-dasharray:53 55;stroke-dashoffset:54;animation:ycWGnqpY_draw 3333ms linear 606ms forwards;}.ycWGnqpY_41{stroke-dasharray:26 28;stroke-dashoffset:27;animation:ycWGnqpY_draw 3333ms linear 621ms forwards;}.ycWGnqpY_42{stroke-dasharray:27 29;stroke-dashoffset:28;animation:ycWGnqpY_draw 3333ms linear 636ms forwards;}.ycWGnqpY_43{stroke-dasharray:25 27;stroke-dashoffset:26;animation:ycWGnqpY_draw 3333ms linear 651ms forwards;}.ycWGnqpY_44{stroke-dasharray:100 102;stroke-dashoffset:101;animation:ycWGnqpY_draw 3333ms linear 666ms forwards;}.ycWGnqpY_45{stroke-dasharray:22 24;stroke-dashoffset:23;animation:ycWGnqpY_draw 3333ms linear 681ms forwards;}.ycWGnqpY_46{stroke-dasharray:67 69;stroke-dashoffset:68;animation:ycWGnqpY_draw 3333ms linear 696ms forwards;}.ycWGnqpY_47{stroke-dasharray:22 24;stroke-dashoffset:23;animation:ycWGnqpY_draw 3333ms linear 712ms forwards;}.ycWGnqpY_48{stroke-dasharray:8 10;stroke-dashoffset:9;animation:ycWGnqpY_draw 3333ms linear 727ms forwards;}.ycWGnqpY_49{stroke-dasharray:26 28;stroke-dashoffset:27;animation:ycWGnqpY_draw 3333ms linear 742ms forwards;}.ycWGnqpY_50{stroke-dasharray:51 53;stroke-dashoffset:52;animation:ycWGnqpY_draw 3333ms linear 757ms forwards;}.ycWGnqpY_51{stroke-dasharray:48 50;stroke-dashoffset:49;animation:ycWGnqpY_draw 3333ms linear 772ms forwards;}.ycWGnqpY_52{stroke-dasharray:26 28;stroke-dashoffset:27;animation:ycWGnqpY_draw 3333ms linear 787ms forwards;}.ycWGnqpY_53{stroke-dasharray:20 22;stroke-dashoffset:21;animation:ycWGnqpY_draw 3333ms linear 803ms forwards;}.ycWGnqpY_54{stroke-dasharray:25 27;stroke-dashoffset:26;animation:ycWGnqpY_draw 3333ms linear 818ms forwards;}.ycWGnqpY_55{stroke-dasharray:39 41;stroke-dashoffset:40;animation:ycWGnqpY_draw 3333ms linear 833ms forwards;}.ycWGnqpY_56{stroke-dasharray:27 29;stroke-dashoffset:28;animation:ycWGnqpY_draw 3333ms linear 848ms forwards;}.ycWGnqpY_57{stroke-dasharray:23 25;stroke-dashoffset:24;animation:ycWGnqpY_draw 3333ms linear 863ms forwards;}.ycWGnqpY_58{stroke-dasharray:43 45;stroke-dashoffset:44;animation:ycWGnqpY_draw 3333ms linear 878ms forwards;}.ycWGnqpY_59{stroke-dasharray:16 18;stroke-dashoffset:17;animation:ycWGnqpY_draw 3333ms linear 893ms forwards;}.ycWGnqpY_60{stroke-dasharray:32 34;stroke-dashoffset:33;animation:ycWGnqpY_draw 3333ms linear 909ms forwards;}.ycWGnqpY_61{stroke-dasharray:33 35;stroke-dashoffset:34;animation:ycWGnqpY_draw 3333ms linear 924ms forwards;}.ycWGnqpY_62{stroke-dasharray:14 16;stroke-dashoffset:15;animation:ycWGnqpY_draw 3333ms linear 939ms forwards;}.ycWGnqpY_63{stroke-dasharray:0 2;stroke-dashoffset:1;animation:ycWGnqpY_draw 3333ms linear 954ms forwards;}.ycWGnqpY_64{stroke-dasharray:17 19;stroke-dashoffset:18;animation:ycWGnqpY_draw 3333ms linear 969ms forwards;}.ycWGnqpY_65{stroke-dasharray:13 15;stroke-dashoffset:14;animation:ycWGnqpY_draw 3333ms linear 984ms forwards;}.ycWGnqpY_66{stroke-dasharray:9 11;stroke-dashoffset:10;animation:ycWGnqpY_draw 3333ms linear 1000ms forwards;}.ycWGnqpY_67{stroke-dasharray:28 30;stroke-dashoffset:29;animation:ycWGnqpY_draw 3333ms linear 1015ms forwards;}.ycWGnqpY_68{stroke-dasharray:12 14;stroke-dashoffset:13;animation:ycWGnqpY_draw 3333ms linear 1030ms forwards;}.ycWGnqpY_69{stroke-dasharray:18 20;stroke-dashoffset:19;animation:ycWGnqpY_draw 3333ms linear 1045ms forwards;}.ycWGnqpY_70{stroke-dasharray:23 25;stroke-dashoffset:24;animation:ycWGnqpY_draw 3333ms linear 1060ms forwards;}.ycWGnqpY_71{stroke-dasharray:17 19;stroke-dashoffset:18;animation:ycWGnqpY_draw 3333ms linear 1075ms forwards;}.ycWGnqpY_72{stroke-dasharray:9 11;stroke-dashoffset:10;animation:ycWGnqpY_draw 3333ms linear 1090ms forwards;}.ycWGnqpY_73{stroke-dasharray:16 18;stroke-dashoffset:17;animation:ycWGnqpY_draw 3333ms linear 1106ms forwards;}.ycWGnqpY_74{stroke-dasharray:10 12;stroke-dashoffset:11;animation:ycWGnqpY_draw 3333ms linear 1121ms forwards;}.ycWGnqpY_75{stroke-dasharray:27 29;stroke-dashoffset:28;animation:ycWGnqpY_draw 3333ms linear 1136ms forwards;}.ycWGnqpY_76{stroke-dasharray:13 15;stroke-dashoffset:14;animation:ycWGnqpY_draw 3333ms linear 1151ms forwards;}.ycWGnqpY_77{stroke-dasharray:9 11;stroke-dashoffset:10;animation:ycWGnqpY_draw 3333ms linear 1166ms forwards;}.ycWGnqpY_78{stroke-dasharray:42 44;stroke-dashoffset:43;animation:ycWGnqpY_draw 3333ms linear 1181ms forwards;}.ycWGnqpY_79{stroke-dasharray:71 73;stroke-dashoffset:72;animation:ycWGnqpY_draw 3333ms linear 1196ms forwards;}.ycWGnqpY_80{stroke-dasharray:99 101;stroke-dashoffset:100;animation:ycWGnqpY_draw 3333ms linear 1212ms forwards;}.ycWGnqpY_81{stroke-dasharray:12 14;stroke-dashoffset:13;animation:ycWGnqpY_draw 3333ms linear 1227ms forwards;}.ycWGnqpY_82{stroke-dasharray:5 7;stroke-dashoffset:6;animation:ycWGnqpY_draw 3333ms linear 1242ms forwards;}.ycWGnqpY_83{stroke-dasharray:7 9;stroke-dashoffset:8;animation:ycWGnqpY_draw 3333ms linear 1257ms forwards;}.ycWGnqpY_84{stroke-dasharray:8 10;stroke-dashoffset:9;animation:ycWGnqpY_draw 3333ms linear 1272ms forwards;}.ycWGnqpY_85{stroke-dasharray:5 7;stroke-dashoffset:6;animation:ycWGnqpY_draw 3333ms linear 1287ms forwards;}.ycWGnqpY_86{stroke-dasharray:6 8;stroke-dashoffset:7;animation:ycWGnqpY_draw 3333ms linear 1303ms forwards;}.ycWGnqpY_87{stroke-dasharray:21 23;stroke-dashoffset:22;animation:ycWGnqpY_draw 3333ms linear 1318ms forwards;}.ycWGnqpY_88{stroke-dasharray:5 7;stroke-dashoffset:6;animation:ycWGnqpY_draw 3333ms linear 1333ms forwards;}.ycWGnqpY_89{stroke-dasharray:8 10;stroke-dashoffset:9;animation:ycWGnqpY_draw 3333ms linear 1348ms forwards;}.ycWGnqpY_90{stroke-dasharray:7 9;stroke-dashoffset:8;animation:ycWGnqpY_draw 3333ms linear 1363ms forwards;}.ycWGnqpY_91{stroke-dasharray:10 12;stroke-dashoffset:11;animation:ycWGnqpY_draw 3333ms linear 1378ms forwards;}.ycWGnqpY_92{stroke-dasharray:14 16;stroke-dashoffset:15;animation:ycWGnqpY_draw 3333ms linear 1393ms forwards;}.ycWGnqpY_93{stroke-dasharray:4 6;stroke-dashoffset:5;animation:ycWGnqpY_draw 3333ms linear 1409ms forwards;}.ycWGnqpY_94{stroke-dasharray:38 40;stroke-dashoffset:39;animation:ycWGnqpY_draw 3333ms linear 1424ms forwards;}.ycWGnqpY_95{stroke-dasharray:10 12;stroke-dashoffset:11;animation:ycWGnqpY_draw 3333ms linear 1439ms forwards;}.ycWGnqpY_96{stroke-dasharray:5 7;stroke-dashoffset:6;animation:ycWGnqpY_draw 3333ms linear 1454ms forwards;}.ycWGnqpY_97{stroke-dasharray:12 14;stroke-dashoffset:13;animation:ycWGnqpY_draw 3333ms linear 1469ms forwards;}.ycWGnqpY_98{stroke-dasharray:6 8;stroke-dashoffset:7;animation:ycWGnqpY_draw 3333ms linear 1484ms forwards;}.ycWGnqpY_99{stroke-dasharray:10 12;stroke-dashoffset:11;animation:ycWGnqpY_draw 3333ms linear 1500ms forwards;}.ycWGnqpY_100{stroke-dasharray:11 13;stroke-dashoffset:12;animation:ycWGnqpY_draw 3333ms linear 1515ms forwards;}.ycWGnqpY_101{stroke-dasharray:4 6;stroke-dashoffset:5;animation:ycWGnqpY_draw 3333ms linear 1530ms forwards;}.ycWGnqpY_102{stroke-dasharray:11 13;stroke-dashoffset:12;animation:ycWGnqpY_draw 3333ms linear 1545ms forwards;}.ycWGnqpY_103{stroke-dasharray:19 21;stroke-dashoffset:20;animation:ycWGnqpY_draw 3333ms linear 1560ms forwards;}.ycWGnqpY_104{stroke-dasharray:9 11;stroke-dashoffset:10;animation:ycWGnqpY_draw 3333ms linear 1575ms forwards;}.ycWGnqpY_105{stroke-dasharray:21 23;stroke-dashoffset:22;animation:ycWGnqpY_draw 3333ms linear 1590ms forwards;}.ycWGnqpY_106{stroke-dasharray:2 4;stroke-dashoffset:3;animation:ycWGnqpY_draw 3333ms linear 1606ms forwards;}.ycWGnqpY_107{stroke-dasharray:2 4;stroke-dashoffset:3;animation:ycWGnqpY_draw 3333ms linear 1621ms forwards;}.ycWGnqpY_108{stroke-dasharray:7 9;stroke-dashoffset:8;animation:ycWGnqpY_draw 3333ms linear 1636ms forwards;}.ycWGnqpY_109{stroke-dasharray:23 25;stroke-dashoffset:24;animation:ycWGnqpY_draw 3333ms linear 1651ms forwards;}.ycWGnqpY_110{stroke-dasharray:16 18;stroke-dashoffset:17;animation:ycWGnqpY_draw 3333ms linear 1666ms forwards;}@keyframes ycWGnqpY_draw{100%{stroke-dashoffset:0;}}@keyframes ycWGnqpY_fade{0%{stroke-opacity:1;}95.65217391304348%{stroke-opacity:1;}100%{stroke-opacity:0;}}</style></svg>
